<?xml version="1.0" standalone="no"?>
<!DOCTYPE svg PUBLIC "-//W3C//DTD SVG 20010904//EN"
 "http://www.w3.org/TR/2001/REC-SVG-20010904/DTD/svg10.dtd">
<svg version="1.0" xmlns="http://www.w3.org/2000/svg"
 width="200.000000pt" height="200.000000pt" viewBox="0 0 200.000000 200.000000"
 preserveAspectRatio="xMidYMid meet">

<g transform="translate(0.000000,200.000000) scale(0.100000,-0.100000)"
fill="red" stroke="none">
<path d="M545 1538 c-44 -15 -70 -43 -84 -88 -19 -65 2 -97 187 -282 l167
-168 -167 -167 c-183 -184 -206 -218 -188 -282 17 -66 84 -108 150 -96 28 5
69 40 212 183 l178 176 177 -176 c148 -145 184 -177 214 -182 65 -11 129 27
149 91 23 66 10 86 -178 276 l-176 177 176 178 c143 143 178 184 183 212 12
66 -30 133 -96 150 -64 18 -98 -5 -281 -188 l-168 -167 -167 167 c-105 104
-182 173 -205 183 -42 17 -42 17 -83 3z"/>
</g>
</svg>
